<?xml version="1.0" standalone="no"?>
<!DOCTYPE svg PUBLIC "-//W3C//DTD SVG 20010904//EN"
 "http://www.w3.org/TR/2001/REC-SVG-20010904/DTD/svg10.dtd">
<svg version="1.0" xmlns="http://www.w3.org/2000/svg"
 width="1511.000000pt" height="1494.000000pt" viewBox="0 0 1511.000000 1494.000000"
 preserveAspectRatio="xMidYMid meet">
<g transform="translate(0.000000,1494.000000) scale(0.100000,-0.100000)"
fill="currentColor" stroke="none">
<path d="M26 14850 c29 -112 51 -271 64 -455 14 -192 13 -6845 0 -7135 -12
-242 -33 -483 -55 -610 -8 -47 -15 -91 -15 -97 0 -10 205 -13 991 -13 l991 0
-6 33 c-63 341 -86 746 -86 1561 0 537 1 568 18 563 9 -3 49 -17 87 -30 163
-57 380 -86 705 -94 603 -14 1171 81 1629 273 192 81 404 210 530 321 l53 48
-32 55 c-197 335 -375 854 -423 1232 l-12 97 -95 -55 c-243 -139 -548 -242
-850 -289 -142 -22 -504 -31 -656 -16 -314 32 -683 120 -901 217 l-53 23 0
1445 0 1446 403 0 c221 0 607 5 858 12 732 19 1131 -9 1515 -107 376 -96 676
-280 819 -503 22 -34 43 -62 46 -62 3 0 23 13 43 29 173 137 625 316 1078 426
l116 29 -34 95 c-199 554 -623 976 -1252 1248 -406 176 -953 303 -1542 357
-401 38 -454 39 -2211 43 l-1745 4 22 -91z"/>
<path d="M4431 12829 c-405 -47 -756 -321 -960 -749 -105 -221 -150 -400 -158
-635 -4 -137 -2 -174 15 -259 51 -244 190 -401 387 -437 84 -16 217 -6 287 21
181 68 290 221 458 640 45 113 104 251 130 307 141 300 314 467 551 533 186
51 198 193 32 359 -125 124 -294 200 -492 220 -115 12 -144 12 -250 0z"/>
<path d="M7022 12830 c-619 -43 -1131 -251 -1524 -620 -491 -460 -726 -1149
-613 -1799 69 -401 279 -854 536 -1160 33 -39 57 -76 55 -80 -3 -5 -54 -35
-113 -67 -685 -374 -1163 -939 -1332 -1574 -56 -209 -73 -335 -78 -576 -8
-317 17 -494 104 -758 161 -485 495 -889 963 -1167 132 -78 223 -121 388 -185
713 -277 1724 -295 2498 -43 369 119 629 253 982 506 15 10 31 -4 115 -100
151 -174 228 -296 259 -410 l12 -47 1165 0 c984 0 1163 2 1151 14 -8 7 -78 69
-155 137 -173 153 -456 435 -680 679 -148 162 -597 666 -633 712 -11 14 3 32
119 145 327 318 543 657 718 1126 89 240 165 520 281 1037 69 306 126 536 163
653 l25 77 -837 0 -837 0 22 -88 c97 -384 23 -986 -170 -1388 -69 -144 -122
-222 -210 -309 -71 -70 -192 -145 -234 -145 -30 0 -219 205 -927 1009 -182
205 -350 396 -374 423 -24 27 -42 51 -40 52 2 2 51 30 109 61 635 345 1056
746 1287 1225 180 375 227 860 122 1272 -193 762 -862 1278 -1784 1377 -138
15 -396 20 -533 11z m295 -1125 c126 -24 232 -82 330 -180 69 -70 89 -99 132
-186 132 -272 130 -581 -8 -844 -107 -206 -360 -457 -687 -681 l-86 -59 -29
35 c-184 215 -293 373 -374 542 -106 221 -140 376 -132 600 6 198 47 335 141
477 159 239 427 350 713 296z m-887 -3612 c445 -506 950 -1059 1359 -1487 146
-153 267 -282 269 -286 2 -4 -25 -30 -60 -58 -270 -214 -587 -326 -959 -339
-311 -11 -565 46 -789 177 -413 241 -651 711 -602 1188 38 374 212 666 556
934 34 26 63 48 66 47 3 0 75 -80 160 -176z"/>
<path d="M9493 12829 c-104 -11 -249 -57 -332 -106 -192 -112 -306 -299 -242
-396 26 -39 54 -57 119 -74 141 -37 284 -128 379 -242 106 -128 170 -251 305
-586 141 -351 231 -503 349 -590 83 -61 155 -86 264 -92 265 -14 440 122 517
402 32 117 32 395 0 542 -61 279 -183 533 -354 733 -203 237 -458 376 -753
410 -101 11 -135 11 -252 -1z"/>
<path d="M11581 8209 c-112 -500 -266 -945 -438 -1266 l-55 -103 264 0 c274 0
462 -11 633 -36 664 -98 1086 -390 1248 -864 94 -275 101 -669 18 -990 -144
-558 -548 -905 -1208 -1039 -364 -74 -843 -74 -1307 0 -196 32 -176 5 -176
229 l0 190 -905 0 -905 0 0 -1722 c0 -1007 -4 -1804 -10 -1918 -11 -220 -35
-465 -56 -585 -8 -44 -14 -86 -14 -92 0 -10 205 -13 993 -13 l993 0 -22 133
c-54 321 -74 731 -74 1515 0 384 3 522 11 522 7 0 64 -9 128 -20 154 -26 325
-47 496 -61 182 -14 602 -14 780 1 1328 110 2329 714 2810 1695 166 338 256
657 302 1069 20 184 22 618 4 816 -52 576 -199 1051 -443 1439 -513 814 -1466
1257 -2773 1288 l-250 6 -44 -194z"/>
</g>
</svg>
