<?xml version="1.0" standalone="no"?>
<!DOCTYPE svg PUBLIC "-//W3C//DTD SVG 20010904//EN"
 "http://www.w3.org/TR/2001/REC-SVG-20010904/DTD/svg10.dtd">
<svg version="1.0" xmlns="http://www.w3.org/2000/svg"
 width="4435.000000pt" height="689.000000pt" viewBox="0 0 4435.000000 689.000000"
 preserveAspectRatio="xMidYMid meet">
<g transform="translate(0.000000,689.000000) scale(0.100000,-0.100000)"
fill="currentColor" stroke="none">
<path d="M15 6838 c25 -93 44 -239 55 -403 13 -210 13 -5273 0 -5592 -10 -227
-29 -444 -50 -552 -5 -29 -10 -55 -10 -57 0 -2 356 -4 791 -4 748 0 790 1 785
18 -8 30 -26 152 -42 292 -13 104 -17 280 -21 773 l-5 639 29 -6 c316 -64 840
-90 1143 -57 609 66 1110 247 1512 548 132 99 356 321 445 443 257 349 404
742 453 1210 15 146 12 530 -5 696 -92 872 -483 1471 -1178 1804 -230 110
-462 182 -752 235 -332 59 -309 59 -1797 62 l-1366 4 13 -53z m2417 -1199
c433 -30 743 -138 953 -332 154 -142 244 -314 286 -547 19 -107 17 -381 -5
-499 -104 -568 -490 -882 -1185 -962 -69 -7 -191 -10 -360 -6 -239 5 -345 15
-563 53 l-38 7 0 1148 0 1149 379 0 c209 0 448 -5 533 -11z"/>
<path d="M26924 6868 c20 -74 46 -229 55 -328 15 -156 15 -5622 1 -5845 -9
-143 -29 -324 -46 -428 l-7 -37 787 0 c622 0 786 3 786 13 0 6 -9 73 -20 147
-35 248 -42 382 -47 974 l-6 589 34 -7 c65 -14 295 -45 399 -55 302 -29 617
-22 910 19 871 122 1547 534 1929 1175 207 348 315 750 328 1230 16 594 -100
1116 -338 1510 -385 639 -1073 988 -2074 1055 -87 5 -687 10 -1424 10 l-1273
0 6 -22z m2586 -1242 c248 -36 403 -81 570 -167 253 -129 415 -331 486 -604
32 -123 44 -376 25 -530 -76 -601 -486 -952 -1199 -1026 -226 -23 -669 -2
-897 44 l-60 12 -3 1149 -2 1148 482 -5 c372 -4 509 -9 598 -21z"/>
<path d="M10946 6528 c-12 -250 -49 -436 -111 -558 -136 -269 -426 -400 -922
-417 l-173 -6 0 -668 0 -669 474 -2 474 -3 -53 -185 c-266 -918 -639 -1621
-1110 -2093 -421 -421 -895 -651 -1480 -717 -118 -13 -341 -13 -463 1 -379 41
-742 199 -952 415 l-65 67 35 -7 c180 -35 246 -40 485 -40 287 -1 395 12 641
74 726 184 1246 629 1532 1310 290 691 258 1406 -86 1925 -285 430 -741 696
-1337 781 -160 23 -457 23 -625 0 -456 -61 -881 -242 -1225 -521 -112 -91
-300 -283 -382 -390 -265 -349 -478 -826 -582 -1305 -130 -596 -87 -1222 119
-1740 408 -1024 1348 -1629 2530 -1630 801 0 1530 230 2127 671 316 233 636
565 863 893 l55 80 7 -103 c33 -501 192 -908 457 -1171 142 -141 292 -232 472
-284 143 -41 244 -49 511 -43 253 6 386 19 648 63 143 24 458 98 523 123 l27
11 0 691 0 691 -27 -22 c-73 -56 -230 -154 -296 -185 -124 -57 -218 -79 -337
-80 -114 0 -177 16 -260 63 -112 64 -207 191 -260 349 -59 179 -60 188 -60
1301 l0 1012 535 0 535 0 0 670 0 670 -535 0 -535 0 0 560 0 560 -584 0 -583
0 -7 -142z m-3313 -2035 c201 -60 344 -224 408 -468 26 -101 29 -277 6 -382
-41 -189 -151 -376 -319 -541 -257 -254 -505 -381 -847 -432 -131 -19 -414
-31 -423 -17 -11 17 -10 352 2 492 49 567 206 949 484 1171 216 172 478 240
689 177z"/>
<path d="M37860 6560 c0 -235 -39 -442 -111 -590 -58 -118 -169 -228 -289
-287 -166 -82 -355 -120 -637 -130 l-173 -6 0 -668 0 -669 475 0 c302 0 475
-4 475 -10 0 -5 -24 -94 -54 -197 -183 -631 -415 -1153 -706 -1588 -240 -358
-571 -686 -880 -872 -380 -228 -795 -343 -1237 -343 -474 0 -911 158 -1180
428 -30 30 -53 56 -51 57 2 2 41 -2 86 -10 227 -40 562 -44 787 -11 691 102
1261 447 1598 966 204 315 346 703 392 1070 91 734 -188 1369 -768 1745 -508
329 -1274 402 -1931 184 -634 -212 -1126 -654 -1433 -1288 -405 -837 -472
-1732 -188 -2507 47 -128 168 -375 239 -487 238 -378 580 -690 978 -893 378
-192 767 -287 1238 -301 786 -23 1509 181 2125 598 324 220 708 603 951 949
31 45 58 79 60 77 2 -2 9 -59 15 -128 67 -755 399 -1259 930 -1413 146 -42
229 -49 498 -43 395 9 817 73 1119 168 l92 30 0 690 c0 550 -3 689 -12 683 -7
-5 -48 -34 -92 -66 -93 -69 -273 -161 -371 -188 -418 -119 -716 141 -765 665
-6 66 -10 496 -10 1073 l0 962 540 0 540 0 0 670 0 670 -540 0 -540 0 0 560 0
560 -585 0 -585 0 0 -110z m-3313 -2066 c208 -54 370 -254 420 -518 20 -107
13 -282 -17 -386 -49 -174 -167 -359 -328 -511 -314 -299 -603 -410 -1128
-433 l-121 -6 -6 118 c-11 263 24 620 87 866 76 293 185 491 362 654 212 196
491 279 731 216z"/>
<path d="M19517 6560 c-338 -61 -611 -300 -762 -665 -160 -386 -122 -795 88
-938 131 -91 331 -87 460 8 97 72 161 182 287 490 94 231 116 275 186 382 87
131 191 212 324 253 87 27 109 39 126 72 61 117 -101 301 -331 374 -64 21
-105 27 -205 29 -69 2 -147 0 -173 -5z"/>
<path d="M21540 6558 c-52 -5 -151 -20 -219 -34 -741 -149 -1264 -651 -1403
-1346 -33 -169 -31 -415 5 -588 65 -310 219 -639 410 -875 31 -38 57 -72 57
-75 0 -3 -36 -25 -81 -49 -106 -57 -294 -182 -393 -261 -377 -301 -623 -689
-711 -1125 -176 -868 239 -1651 1059 -1999 199 -85 434 -146 701 -182 164 -22
615 -26 780 -6 501 60 947 224 1302 479 41 29 78 53 83 53 13 0 183 -204 219
-264 18 -31 44 -84 56 -119 l23 -62 933 -2 934 -2 -35 31 c-279 246 -431 398
-701 693 -220 242 -459 514 -459 523 0 5 33 39 74 75 203 182 401 464 526 746
110 248 184 503 314 1072 51 222 113 465 131 512 7 16 -29 17 -665 17 l-672 0
6 -22 c35 -123 40 -170 40 -368 0 -169 -4 -228 -23 -335 -68 -387 -219 -676
-411 -787 -90 -53 -79 -58 -246 124 -83 90 -217 240 -300 333 -82 94 -254 288
-382 432 l-232 263 62 31 c297 149 604 380 796 599 298 340 435 739 401 1166
-27 333 -152 619 -373 852 -359 378 -950 562 -1606 500z m353 -903 c171 -44
303 -173 370 -360 34 -96 51 -214 43 -306 -23 -280 -177 -497 -548 -775 -77
-57 -143 -104 -148 -104 -12 0 -162 187 -225 281 -98 146 -168 310 -195 458
-18 100 -13 275 9 364 57 220 212 390 402 441 71 19 220 20 292 1z m-616
-3022 c359 -402 634 -702 828 -906 94 -98 210 -221 259 -273 l89 -95 -24 -25
c-36 -39 -177 -130 -260 -168 -333 -153 -740 -167 -1048 -38 -395 166 -638
579 -591 1007 24 230 109 413 269 587 62 67 204 188 221 188 5 0 120 -125 257
-277z"/>
<path d="M23585 6564 c-216 -35 -401 -159 -451 -302 -15 -44 -6 -92 22 -123 9
-10 54 -30 101 -45 139 -44 245 -125 330 -250 59 -86 113 -199 208 -430 128
-314 202 -422 334 -487 61 -30 72 -32 171 -32 94 0 111 3 167 29 237 109 312
481 178 883 -124 372 -384 641 -707 733 -72 21 -282 35 -353 24z"/>
<path d="M15325 5844 c-328 -32 -550 -86 -800 -194 -370 -159 -685 -430 -868
-747 -268 -465 -263 -1080 13 -1546 69 -117 148 -214 271 -332 240 -228 531
-394 1152 -654 444 -187 602 -273 705 -386 80 -87 97 -131 97 -250 0 -90 -3
-105 -28 -153 -83 -157 -274 -247 -582 -273 -531 -44 -1369 179 -1646 438
l-49 46 0 -702 0 -702 93 -45 c230 -108 599 -199 1027 -251 207 -25 817 -25
1005 0 581 79 996 254 1290 545 202 200 328 437 390 733 36 170 46 469 21 638
-61 409 -278 723 -691 998 -210 140 -477 277 -994 508 -385 172 -495 238 -627
373 -125 129 -184 259 -184 410 0 279 257 494 560 467 230 -21 411 -147 515
-357 59 -121 85 -225 92 -368 5 -106 -11 -256 -33 -314 -6 -15 44 -16 638 -16
l645 0 11 68 c48 295 38 568 -32 823 -175 645 -758 1114 -1520 1224 -107 16
-392 27 -471 19z"/>
<path d="M42240 5844 c-623 -55 -1125 -285 -1474 -674 -188 -209 -324 -491
-372 -765 -24 -142 -22 -384 5 -535 55 -314 191 -576 416 -805 240 -244 541
-420 1150 -675 470 -197 623 -278 738 -393 147 -147 156 -351 22 -495 -126
-136 -330 -195 -675 -195 -533 0 -1187 187 -1478 422 l-62 51 2 -697 3 -698
65 -32 c224 -111 615 -209 1040 -259 181 -21 686 -30 861 -15 659 58 1159 258
1471 590 227 242 353 533 389 906 14 141 7 353 -15 477 -55 306 -208 568 -456
781 -260 224 -515 366 -1250 694 -140 62 -291 134 -335 160 -388 225 -539 529
-400 809 42 86 135 178 220 219 159 75 352 70 522 -15 181 -89 297 -249 355
-488 27 -110 29 -310 4 -420 -9 -40 -16 -75 -16 -78 0 -2 288 -4 640 -4 l640
0 5 23 c21 100 28 169 32 352 5 185 3 226 -17 340 -100 592 -489 1048 -1094
1282 -114 44 -321 97 -460 118 -107 16 -387 27 -476 19z"/>
</g>
</svg>
