<?xml version="1.0" standalone="no"?>
<!DOCTYPE svg PUBLIC "-//W3C//DTD SVG 20010904//EN"
 "http://www.w3.org/TR/2001/REC-SVG-20010904/DTD/svg10.dtd">
<svg version="1.0" xmlns="http://www.w3.org/2000/svg"
 width="2385.000000pt" height="1372.000000pt" viewBox="0 0 2385.000000 1372.000000"
 preserveAspectRatio="xMidYMid meet">
<g transform="translate(0.000000,1372.000000) scale(0.100000,-0.100000)"
fill="currentColor" stroke="none">
<path d="M910 13716 c0 -2 9 -42 19 -88 47 -202 46 -112 46 -3158 0 -1581 -3
-2919 -7 -2972 l-7 -98 57 0 c273 0 551 -105 748 -284 l61 -55 144 73 c138 69
314 138 428 167 l53 13 -6 56 c-19 170 -26 401 -26 879 l0 533 35 -6 c98 -19
305 -46 431 -56 190 -17 667 -8 829 14 769 107 1359 406 1773 901 378 450 559
1068 522 1777 -17 329 -57 557 -141 813 -178 542 -528 941 -1044 1190 -308
149 -622 232 -1070 282 -118 13 -352 16 -1492 20 -744 2 -1353 2 -1353 -1z
m2575 -1255 c537 -78 855 -269 1012 -608 62 -134 85 -245 90 -438 3 -104 1
-205 -6 -259 -36 -271 -140 -496 -306 -661 -186 -187 -468 -309 -830 -361
-237 -34 -652 -20 -937 32 l-88 16 0 1150 0 1150 493 -5 c293 -3 524 -9 572
-16z"/>
<path d="M11850 13386 c0 -321 -73 -578 -207 -725 -167 -185 -398 -259 -895
-287 l-108 -6 0 -664 0 -664 475 0 c261 0 475 -4 475 -8 0 -19 -95 -338 -146
-492 -173 -519 -421 -1027 -676 -1383 -460 -645 -1054 -1020 -1761 -1112 -150
-19 -439 -19 -574 0 -361 51 -675 192 -886 397 l-82 79 40 -5 c22 -4 87 -14
145 -23 133 -21 513 -23 650 -4 582 80 1041 296 1398 659 334 340 577 862 641
1377 48 381 -3 742 -149 1052 -233 495 -694 840 -1282 957 -200 40 -311 49
-547 43 -222 -5 -353 -22 -540 -68 -714 -178 -1284 -657 -1621 -1361 -502
-1051 -459 -2198 112 -3046 182 -269 465 -542 745 -714 622 -385 1441 -502
2305 -327 847 171 1567 639 2122 1379 55 74 108 146 117 160 16 24 17 23 23
-60 69 -850 421 -1364 1026 -1496 116 -26 535 -26 755 0 276 32 562 87 757
144 l93 28 3 687 c1 378 0 687 -3 687 -3 0 -42 -27 -87 -61 -108 -80 -299
-173 -408 -199 -389 -92 -670 148 -730 623 -6 51 -10 461 -10 1084 l0 1003
535 0 535 0 0 665 0 665 -535 0 -535 0 0 565 0 565 -585 0 -585 0 0 -114z
m-3355 -2051 c110 -23 202 -74 276 -153 117 -123 185 -291 196 -479 18 -319
-134 -617 -447 -878 -205 -171 -413 -268 -674 -315 -122 -23 -471 -48 -483
-36 -16 16 -8 485 11 626 60 459 180 761 385 968 89 89 177 152 283 201 160
75 307 97 453 66z"/>
<path d="M16275 12673 c-819 -41 -1515 -464 -1786 -1086 -85 -194 -123 -382
-122 -612 3 -594 271 -1042 831 -1388 194 -120 361 -200 797 -383 533 -224
699 -328 780 -490 25 -51 29 -70 29 -144 0 -72 -4 -94 -28 -147 -71 -155 -252
-250 -541 -283 -522 -59 -1403 166 -1692 433 l-43 40 0 -701 0 -700 103 -45
c297 -130 733 -223 1206 -258 200 -14 624 -6 797 15 880 110 1435 480 1640
1093 60 178 75 273 81 513 4 165 1 238 -11 315 -68 445 -314 768 -811 1068
-163 99 -465 249 -795 396 -465 207 -544 254 -690 400 -176 177 -237 360 -180
543 96 311 452 437 780 277 283 -139 437 -535 354 -907 -8 -35 -14 -67 -14
-73 0 -11 1280 -13 1280 -1 0 4 7 50 15 102 22 142 30 367 16 495 -31 288
-112 515 -260 738 -265 396 -714 668 -1257 761 -85 15 -355 38 -399 34 -11 -1
-47 -3 -80 -5z"/>
</g>
</svg>
