<?xml version="1.0" standalone="no"?>
<!DOCTYPE svg PUBLIC "-//W3C//DTD SVG 20010904//EN"
 "http://www.w3.org/TR/2001/REC-SVG-20010904/DTD/svg10.dtd">
<svg version="1.0" xmlns="http://www.w3.org/2000/svg"
 width="1713.000000pt" height="1737.000000pt" viewBox="0 0 1713.000000 1737.000000"
 preserveAspectRatio="xMidYMid meet">
<g transform="translate(0.000000,1737.000000) scale(0.100000,-0.100000)"
fill="currentColor" stroke="none">
<path d="M4153 17321 c-229 -191 -381 -451 -449 -765 -25 -114 -30 -316 -10
-416 35 -179 129 -313 254 -361 87 -33 212 -37 298 -10 170 52 261 174 414
556 82 203 154 353 211 437 90 131 208 221 349 265 109 34 140 63 140 128 0
55 -27 111 -82 171 l-41 44 -513 0 -513 0 -58 -49z"/>
<path d="M6260 17319 c233 -163 412 -349 731 -759 197 -253 302 -346 483 -430
106 -49 167 -69 423 -141 117 -32 241 -71 275 -85 177 -74 259 -176 275 -340
8 -84 -21 -143 -126 -259 -92 -102 -166 -204 -261 -360 -227 -373 -480 -587
-772 -654 -183 -43 -337 -37 -673 26 -330 61 -417 74 -548 81 -338 19 -593
-39 -858 -194 -46 -27 -165 -110 -264 -184 -327 -247 -447 -315 -613 -347
l-91 -17 -4 -3331 c-3 -2375 -7 -3370 -15 -3470 -27 -327 -60 -607 -88 -742
l-6 -33 1337 0 1337 0 -5 22 c-14 59 -58 370 -72 513 -33 347 -37 467 -42
1241 l-5 801 -46 -8 c-26 -4 -117 -13 -202 -19 -425 -34 -771 44 -996 224 -88
71 -147 144 -225 281 -89 157 -132 219 -225 316 -73 77 -83 93 -99 152 -20 73
-16 136 10 188 9 17 57 74 107 127 220 236 281 358 393 782 59 225 84 299 135
400 71 142 166 252 300 352 126 94 259 161 505 258 124 49 180 103 191 182 19
138 -78 310 -295 527 -91 90 -105 108 -105 137 0 42 33 79 94 107 35 16 71 22
165 25 103 3 133 0 216 -21 168 -44 322 -130 594 -333 260 -195 391 -272 609
-359 355 -141 570 -342 740 -688 174 -355 256 -795 256 -1377 0 -235 -9 -390
-41 -758 -12 -133 -19 -245 -16 -248 14 -14 445 53 681 105 397 89 752 212
1104 382 1157 558 1906 1514 2157 2754 70 347 90 568 90 1015 0 487 -24 754
-101 1145 -126 631 -374 1185 -729 1630 -107 134 -355 381 -490 489 -598 475
-1367 769 -2320 885 -419 51 -485 54 -1755 58 l-1195 5 75 -53z"/>
</g>
</svg>
